<?xml version="1.0" encoding="UTF-8" standalone="no"?>
<!-- Created with Inkscape (http://www.inkscape.org/) -->

<svg
   width="46.552982mm"
   height="8.3245831mm"
   viewBox="0 0 46.552982 8.3245831"
   version="1.1"
   id="svg5"
   inkscape:version="1.1.2 (0a00cf5339, 2022-02-04)"
   sodipodi:docname="banner.svg"
   xmlns:inkscape="http://www.inkscape.org/namespaces/inkscape"
   xmlns:sodipodi="http://sodipodi.sourceforge.net/DTD/sodipodi-0.dtd"
   xmlns="http://www.w3.org/2000/svg"
   xmlns:svg="http://www.w3.org/2000/svg">
  <sodipodi:namedview
     id="namedview7"
     pagecolor="#ffffff"
     bordercolor="#666666"
     borderopacity="1.0"
     inkscape:pageshadow="2"
     inkscape:pageopacity="0.0"
     inkscape:pagecheckerboard="0"
     inkscape:document-units="mm"
     showgrid="false"
     inkscape:zoom="4.7040443"
     inkscape:cx="135.41539"
     inkscape:cy="80.887843"
     inkscape:window-width="2560"
     inkscape:window-height="1367"
     inkscape:window-x="1920"
     inkscape:window-y="0"
     inkscape:window-maximized="1"
     inkscape:current-layer="layer1" />
  <defs
     id="defs2">
    <rect
       x="371.0209"
       y="436.61765"
       width="55.419342"
       height="58.816704"
       id="rect16900" />
    <rect
       x="205.06178"
       y="471.27695"
       width="159.28001"
       height="48.697552"
       id="rect2642" />
  </defs>
  <g
     inkscape:label="Layer 1"
     inkscape:groupmode="layer"
     id="layer1"
     transform="translate(-46.016401,-124.27095)">
    <g
       id="g25277">
      <path
         d="m 92.036059,125.48381 c -0.533316,2.66659 -3.733244,2.66659 -3.733244,2.66659 h -5.866533 c -0.533321,0 -1.066643,-0.53332 -1.066643,-0.53332 h -0.533321 v 2.13328 h 0.533321 c 0,0 0.533322,-0.53331 1.066643,-0.53331 h 0.159985 c -0.10667,0.16005 -0.159985,0.31999 -0.159985,0.53331 v 1.06665 c 0,0.58666 0.479988,1.06666 1.066642,1.06666 h 0.533321 v 0.5333 h 1.066644 v -0.5333 h 0.53332 v 0.5333 h 1.066643 v -0.5333 h 0.53332 v 0.5333 h 1.066643 v -0.5333 h 0.53332 c 0.586655,0 1.066644,-0.48 1.066644,-1.06666 v -1.06665 c 0,-0.0534 0,-0.16004 -0.05334,-0.21332 0.906643,0.31999 1.866622,0.95997 2.18661,2.34663 h 0.533333 v -6.39986 h -0.533333 m -8.533134,5.59986 c -0.159986,0 -0.266661,-0.10664 -0.266661,-0.26666 v -1.06665 c 0,-0.16004 0.106671,-0.26665 0.266661,-0.26665 h 0.53332 v 1.59996 h -0.53332 m 1.599963,0 v -1.59996 h 0.533321 v 1.59996 h -0.533321 m 1.599965,0 v -1.59996 h 0.53332 v 1.59996 h -0.53332 m 2.399944,-0.26666 c 0,0.16006 -0.106671,0.26666 -0.266661,0.26666 h -0.53332 v -1.59996 h 0.53332 c 0.159987,0 0.266661,0.10663 0.266661,0.26665 v 1.06665 m -3.949956,-2.71739 h -1.066643 v -0.53331 h 1.066643 v 0.53331 m 1.599965,0 H 85.68615 v -0.53331 h 1.066644 v 0.53331 m 1.599963,0 h -1.066639 v -0.53331 h 1.066643 z"
         id="path10564"
         style="stroke-width:0.53332"
         sodipodi:nodetypes="ccsccccscsssccccccccccccsssccccccsssccccccccccccccsccsscccccccccccccccc" />
      <g
         aria-label="todoot"
         transform="matrix(0.26458333,0,0,0.26458333,-8.3017289,-1.900162)"
         id="text2640"
         style="font-size:40px;font-family:'DM Sans';-inkscape-font-specification:'DM Sans';white-space:pre;stroke:#000000;stroke-width:2.1715">
        <g
           id="path24472">
          <path
             style="color:#000000;-inkscape-font-specification:'DM Sans';fill:#000000;stroke:none;-inkscape-stroke:none"
             d="m 215.6625,506.75353 q -2.72,0 -4.28,-1.32 -1.56,-1.32 -1.56,-4.76 v -10.92 h -3.44 v -2.84 h 3.44 l 0.44,-4.76 h 2.92 v 4.76 h 5.84 v 2.84 h -5.84 v 10.92 q 0,1.88 0.76,2.56 0.76,0.64 2.68,0.64 h 2.08 v 2.88 z"
             id="path24487" />
          <path
             style="color:#000000;-inkscape-font-specification:'DM Sans';fill:#000000;stroke:none;-inkscape-stroke:none"
             d="m 209.27344,481.06836 -0.44141,4.75976 h -3.53516 v 5.01172 h 3.43946 v 9.83399 c 0,2.45745 0.55027,4.40747 1.94531,5.58789 1.27754,1.08099 2.9915,1.57812 4.98047,1.57812 h 4.12695 v -5.05273 h -3.16601 c -1.14792,0 -1.79074,-0.24357 -1.96094,-0.38086 -0.13722,-0.12854 -0.39453,-0.6365 -0.39453,-1.73242 v -9.83399 h 5.83984 v -5.01172 h -5.83984 v -4.75976 z m 1.97851,2.17187 h 0.84571 V 488 h 5.83984 v 0.66797 h -5.83984 v 12.00586 c 0,1.39964 0.24388,2.58426 1.12109,3.36914 l 0.0117,0.01 0.0117,0.0117 c 0.85125,0.71685 1.98022,0.89453 3.38086,0.89453 h 0.99414 v 0.70899 h -1.95508 c -1.6377,0 -2.77567,-0.3835 -3.57813,-1.0625 -0.68496,-0.57958 -1.17578,-1.80244 -1.17578,-3.93164 v -12.00586 h -3.43945 V 488 h 3.34375 z"
             id="path24489" />
        </g>
        <g
           id="path24474">
          <path
             style="color:#000000;-inkscape-font-specification:'DM Sans';fill:#000000;stroke:none;-inkscape-stroke:none"
             d="m 231.78239,507.23353 q -2.8,0 -5.04,-1.28 -2.24,-1.28 -3.56,-3.6 -1.28,-2.36 -1.28,-5.52 0,-3.16 1.32,-5.48 1.32,-2.36 3.56,-3.64 2.28,-1.28 5.08,-1.28 2.8,0 5.04,1.28 2.24,1.28 3.52,3.64 1.32,2.32 1.32,5.48 0,3.16 -1.32,5.52 -1.32,2.32 -3.6,3.6 -2.24,1.28 -5.04,1.28 z m 0,-2.88 q 1.72,0 3.2,-0.84 1.48,-0.84 2.4,-2.52 0.92,-1.68 0.92,-4.16 0,-2.48 -0.92,-4.16 -0.88,-1.68 -2.36,-2.52 -1.48,-0.84 -3.16,-0.84 -1.72,0 -3.2,0.84 -1.48,0.84 -2.4,2.52 -0.92,1.68 -0.92,4.16 0,2.48 0.92,4.16 0.92,1.68 2.36,2.52 1.48,0.84 3.16,0.84 z"
             id="path24493" />
          <path
             style="color:#000000;-inkscape-font-specification:'DM Sans';fill:#000000;stroke:none;-inkscape-stroke:none"
             d="m 231.86328,485.34766 c -2.03211,0 -3.92784,0.47371 -5.61328,1.41992 l -0.002,0.002 -0.004,0.002 c -1.66235,0.94992 -3,2.32323 -3.9668,4.05079 -4.5e-4,8.1e-4 -0.001,0.001 -0.002,0.002 -0.9819,1.72919 -1.45898,3.75517 -1.45898,6.00976 0,2.25327 0.46195,4.28526 1.41211,6.03711 l 0.004,0.01 0.006,0.01 c 0.9681,1.70152 2.30594,3.05792 3.96484,4.00586 1.66254,0.95002 3.54797,1.42188 5.58008,1.42188 2.02902,0 3.90964,-0.47085 5.57032,-1.41797 l 0.002,-0.002 c 1.68505,-0.94657 3.0398,-2.30303 4.00976,-4.00782 l 0.002,-0.004 0.002,-0.004 c 0.98078,-1.75352 1.45899,-3.79098 1.45898,-6.04883 0,-2.25485 -0.4788,-4.28044 -1.46093,-6.00976 -0.94023,-1.72788 -2.26463,-3.10351 -3.92578,-4.05274 -1.66254,-0.95001 -3.54602,-1.42382 -5.57813,-1.42382 z m 0,2.17187 c 1.70122,0 3.17587,0.38007 4.5,1.13672 1.32111,0.75492 2.33946,1.80252 3.10547,3.21484 l 0.004,0.01 0.006,0.01 c 0.77521,1.36251 1.17773,2.98788 1.17773,4.94336 0,1.95303 -0.4024,3.59237 -1.17969,4.98438 -0.7894,1.38648 -1.83253,2.42791 -3.18554,3.1875 l -0.004,0.004 -0.004,0.002 c -1.32413,0.75664 -2.79878,1.13672 -4.5,1.13672 -1.70121,0 -3.17782,-0.38008 -4.50195,-1.13672 -1.32538,-0.75736 -2.35709,-1.80137 -3.14844,-3.18945 -0.7522,-1.39223 -1.14453,-3.0339 -1.14453,-4.98829 0,-1.95548 0.40252,-3.58085 1.17774,-4.94336 l 0.002,-0.004 0.002,-0.004 c 0.79213,-1.41622 1.82529,-2.46655 3.14649,-3.22265 1.35413,-0.75986 2.84632,-1.14063 4.54687,-1.14063 z m 0,0.70899 c -1.32341,0 -2.59263,0.33134 -3.73633,0.98046 -1.17291,0.66571 -2.12188,1.6751 -2.8164,2.94336 -0.72144,1.31741 -1.05469,2.89405 -1.05469,4.68164 0,1.7876 0.33325,3.36424 1.05469,4.68164 0.69134,1.26246 1.62043,2.26752 2.76562,2.93555 l 0.004,0.004 0.006,0.002 c 1.14004,0.64705 2.39631,0.98242 3.69726,0.98242 1.32342,0 2.59068,-0.33329 3.73438,-0.98242 1.17291,-0.6657 2.12188,-1.67314 2.8164,-2.94141 0.72144,-1.3174 1.05469,-2.89404 1.05469,-4.68164 0,-1.78448 -0.33389,-3.3578 -1.05273,-4.67382 -0.66787,-1.27038 -1.6043,-2.28539 -2.77735,-2.95118 -1.14004,-0.64705 -2.39435,-0.98046 -3.69531,-0.98046 z m 0,2.16992 c 0.93904,0 1.78976,0.22627 2.62305,0.69922 0.79677,0.45222 1.4285,1.11581 1.93359,2.08007 l 0.006,0.008 0.004,0.01 c 0.50522,0.92259 0.78711,2.1196 0.78711,3.63867 0,1.51908 -0.28189,2.71609 -0.78711,3.63868 -0.53214,0.97173 -1.182,1.64141 -1.98242,2.0957 -0.82964,0.47087 -1.69415,0.69922 -2.66407,0.69922 -0.93691,0 -1.78766,-0.22651 -2.61914,-0.69727 -0.77182,-0.45194 -1.41544,-1.12293 -1.94922,-2.09765 -0.50522,-0.92259 -0.78711,-2.1196 -0.78711,-3.63868 0,-1.51907 0.28189,-2.71608 0.78711,-3.63867 0.53214,-0.97173 1.18396,-1.64336 1.98438,-2.09765 0.82964,-0.47088 1.69415,-0.69922 2.66406,-0.69922 z"
             id="path24495" />
        </g>
        <g
           id="path24476">
          <path
             style="color:#000000;-inkscape-font-specification:'DM Sans';fill:#000000;stroke:none;-inkscape-stroke:none"
             d="m 255.42235,507.23353 q -2.96,0 -5.2,-1.36 -2.2,-1.36 -3.44,-3.72 -1.2,-2.36 -1.2,-5.36 0,-3 1.24,-5.32 1.24,-2.36 3.44,-3.68 2.2,-1.36 5.2,-1.36 2.44,0 4.32,1 1.88,1 2.92,2.8 v -12.28 h 3.36 v 28.8 h -3.04 l -0.32,-3.28 q -0.96,1.44 -2.76,2.6 -1.8,1.16 -4.52,1.16 z m 0.36,-2.92 q 2,0 3.52,-0.92 1.56,-0.96 2.4,-2.64 0.88,-1.68 0.88,-3.92 0,-2.24 -0.88,-3.92 -0.84,-1.68 -2.4,-2.6 -1.52,-0.96 -3.52,-0.96 -1.96,0 -3.52,0.96 -1.52,0.92 -2.4,2.6 -0.84,1.68 -0.84,3.92 0,2.24 0.84,3.92 0.88,1.68 2.4,2.64 1.56,0.92 3.52,0.92 z"
             id="path24499" />
          <path
             style="color:#000000;-inkscape-font-specification:'DM Sans';fill:#000000;stroke:none;-inkscape-stroke:none"
             d="m 261.61719,476.86719 c 0,3.52083 0,7.04167 0,10.5625 -2.58414,-2.26158 -6.39401,-2.49271 -9.58271,-1.60568 -4.00931,1.14598 -6.91801,4.92838 -7.40632,9.01297 -0.58,4.0271 0.59881,8.51459 3.86654,11.13264 2.93879,2.43374 7.2318,2.97673 10.77286,1.67003 1.02969,-0.20611 2.04718,-1.512 2.58158,-1.73082 0.0627,0.64387 0.1254,1.28775 0.1881,1.93162 1.70378,0 3.40755,0 5.11133,0 0,-10.32422 0,-20.64843 0,-30.97265 -1.84379,-2e-4 -3.68759,-4.1e-4 -5.53138,-6.1e-4 z m 2.17187,2.17187 c 0.35388,0.11948 1.20822,-0.26151 1.1875,0.23256 0,8.79878 0,17.59757 0,26.39635 -0.42953,-0.0534 -1.16706,0.23272 -1.01387,-0.46293 -0.15814,-1.62238 -0.31627,-3.24477 -0.47441,-4.86715 -1.17131,1.6722 -2.11378,3.60352 -3.93165,4.68845 -2.2622,1.49049 -5.28797,1.38434 -7.74126,0.44505 -3.22428,-1.31313 -5.10181,-4.77803 -5.1379,-8.16484 -0.22821,-3.50211 1.396,-7.26716 4.64762,-8.86862 2.82467,-1.3545 6.54362,-1.32945 9.05726,0.69153 1.38574,1.19433 2.04599,2.95284 3.00958,4.46597 0.2709,0.53825 0.49596,0.90563 0.39745,0.0672 -1.1e-4,-4.87452 -2.1e-4,-9.74903 -3.2e-4,-14.62354 z m -8.00586,9.22852 c -3.52409,-0.11688 -6.82562,2.52708 -7.54903,5.96351 -0.8317,3.46166 -0.0318,7.63072 3.01777,9.78839 3.32994,2.38004 8.6064,1.66312 10.87697,-1.85517 2.20638,-3.33378 2.09054,-8.16917 -0.4787,-11.27754 -1.44587,-1.68579 -3.65332,-2.64983 -5.86701,-2.61919 z m 0,2.17187 c 2.41505,-0.0965 4.69157,1.60687 5.35182,3.91794 0.86692,2.81774 0.2734,6.46687 -2.40059,8.11067 -2.5164,1.49616 -6.25208,0.79553 -7.70637,-1.8613 -1.20919,-2.16701 -1.22018,-4.95513 -0.19597,-7.19534 0.90448,-1.84808 2.90352,-3.02457 4.95111,-2.97197 z"
             id="path24501" />
        </g>
        <g
           id="path24478">
          <path
             style="color:#000000;-inkscape-font-specification:'DM Sans';fill:#000000;stroke:none;-inkscape-stroke:none"
             d="m 280.58229,507.23353 q -2.8,0 -5.04,-1.28 -2.24,-1.28 -3.56,-3.6 -1.28,-2.36 -1.28,-5.52 0,-3.16 1.32,-5.48 1.32,-2.36 3.56,-3.64 2.28,-1.28 5.08,-1.28 2.8,0 5.04,1.28 2.24,1.28 3.52,3.64 1.32,2.32 1.32,5.48 0,3.16 -1.32,5.52 -1.32,2.32 -3.6,3.6 -2.24,1.28 -5.04,1.28 z m 0,-2.88 q 1.72,0 3.2,-0.84 1.48,-0.84 2.4,-2.52 0.92,-1.68 0.92,-4.16 0,-2.48 -0.92,-4.16 -0.88,-1.68 -2.36,-2.52 -1.48,-0.84 -3.16,-0.84 -1.72,0 -3.2,0.84 -1.48,0.84 -2.4,2.52 -0.92,1.68 -0.92,4.16 0,2.48 0.92,4.16 0.92,1.68 2.36,2.52 1.48,0.84 3.16,0.84 z"
             id="path24505" />
          <path
             style="color:#000000;-inkscape-font-specification:'DM Sans';fill:#000000;stroke:none;-inkscape-stroke:none"
             d="m 280.66211,485.34766 c -2.03211,0 -3.92589,0.47371 -5.61133,1.41992 l -0.004,0.002 -0.004,0.002 c -1.66235,0.94992 -3,2.32323 -3.9668,4.05079 -4.6e-4,8.1e-4 -0.001,0.001 -0.002,0.002 -0.9819,1.72919 -1.45703,3.75517 -1.45703,6.00976 0,2.25327 0.46,4.28526 1.41015,6.03711 l 0.006,0.01 0.006,0.01 c 0.9681,1.70152 2.30594,3.05792 3.96485,4.00586 1.66253,0.95002 3.54601,1.42188 5.57812,1.42188 2.03147,0 3.91403,-0.47246 5.57617,-1.42188 1.68392,-0.9465 3.03832,-2.30188 4.00782,-4.00586 l 0.002,-0.004 0.002,-0.004 c 0.98078,-1.75352 1.45899,-3.79098 1.45899,-6.04883 0,-2.25228 -0.47717,-4.27588 -1.45704,-6.0039 -0.94045,-1.73136 -2.26812,-3.10801 -3.93164,-4.0586 -1.66253,-0.95001 -3.54601,-1.42382 -5.57812,-1.42382 z m 0,2.17187 c 1.70122,0 3.17782,0.38007 4.50195,1.13672 1.32111,0.75492 2.33751,1.80252 3.10352,3.21484 l 0.006,0.01 0.006,0.01 c 0.77521,1.36251 1.17773,2.98788 1.17773,4.94336 0,1.95303 -0.4024,3.59237 -1.17969,4.98438 -0.7894,1.38648 -1.83448,2.42791 -3.1875,3.1875 l -0.002,0.004 -0.004,0.002 c -1.32413,0.75664 -2.80073,1.13672 -4.50195,1.13672 -1.70122,0 -3.17782,-0.38008 -4.50195,-1.13672 -1.32369,-0.75639 -2.35553,-1.79817 -3.14649,-3.1836 -0.75387,-1.39322 -1.14648,-3.03755 -1.14648,-4.99414 0,-1.95548 0.40447,-3.58085 1.17969,-4.94336 l 0.002,-0.004 0.002,-0.004 c 0.79261,-1.41709 1.82608,-2.46841 3.14844,-3.22461 8.1e-4,-4.6e-4 0.001,-10e-4 0.002,-0.002 1.35253,-0.75759 2.84301,-1.13672 4.54102,-1.13672 z m 0,0.70899 c -1.32342,0 -2.59263,0.33134 -3.73633,0.98046 -1.17291,0.66571 -2.12188,1.6751 -2.81641,2.94336 -0.72143,1.31741 -1.05273,2.89405 -1.05273,4.68164 0,1.7876 0.3313,3.36424 1.05273,4.68164 0.69135,1.26246 1.62044,2.26752 2.76563,2.93555 l 0.006,0.004 0.006,0.002 c 1.14004,0.64705 2.39435,0.98242 3.69531,0.98242 1.32342,0 2.59263,-0.33329 3.73633,-0.98242 1.17291,-0.6657 2.12188,-1.67314 2.81641,-2.94141 0.72143,-1.3174 1.05273,-2.89404 1.05273,-4.68164 0,-1.78448 -0.33194,-3.3578 -1.05078,-4.67382 -0.66787,-1.27039 -1.60625,-2.28539 -2.7793,-2.95118 -1.14004,-0.64705 -2.39435,-0.98046 -3.69531,-0.98046 z m 0,2.16992 c 0.93904,0 1.79171,0.22627 2.625,0.69922 0.79677,0.45222 1.4285,1.11581 1.93359,2.08007 l 0.004,0.008 0.006,0.01 c 0.50523,0.92259 0.78515,2.1196 0.78515,3.63867 0,1.51908 -0.27992,2.71609 -0.78515,3.63868 -0.53214,0.97173 -1.18395,1.64141 -1.98438,2.0957 -0.82963,0.47087 -1.69414,0.69922 -2.66406,0.69922 -0.93773,0 -1.78696,-0.22762 -2.61914,-0.69922 -0.77131,-0.45194 -1.4157,-1.12146 -1.94922,-2.0957 -0.50522,-0.92259 -0.78515,-2.1196 -0.78515,-3.63868 0,-1.51907 0.27993,-2.71608 0.78515,-3.63867 0.53214,-0.97173 1.18395,-1.64336 1.98438,-2.09765 0.82963,-0.47088 1.69414,-0.69922 2.66406,-0.69922 z"
             id="path24507" />
        </g>
        <g
           id="path24480">
          <path
             style="color:#000000;-inkscape-font-specification:'DM Sans';fill:#000000;stroke:none;-inkscape-stroke:none"
             d="m 304.26225,507.23353 q -2.8,0 -5.04,-1.28 -2.24,-1.28 -3.56,-3.6 -1.28,-2.36 -1.28,-5.52 0,-3.16 1.32,-5.48 1.32,-2.36 3.56,-3.64 2.28,-1.28 5.08,-1.28 2.8,0 5.04,1.28 2.24,1.28 3.52,3.64 1.32,2.32 1.32,5.48 0,3.16 -1.32,5.52 -1.32,2.32 -3.6,3.6 -2.24,1.28 -5.04,1.28 z m 0,-2.88 q 1.72,0 3.2,-0.84 1.48,-0.84 2.4,-2.52 0.92,-1.68 0.92,-4.16 0,-2.48 -0.92,-4.16 -0.88,-1.68 -2.36,-2.52 -1.48,-0.84 -3.16,-0.84 -1.72,0 -3.2,0.84 -1.48,0.84 -2.4,2.52 -0.92,1.68 -0.92,4.16 0,2.48 0.92,4.16 0.92,1.68 2.36,2.52 1.48,0.84 3.16,0.84 z"
             id="path24511" />
          <path
             style="color:#000000;-inkscape-font-specification:'DM Sans';fill:#000000;stroke:none;-inkscape-stroke:none"
             d="m 304.3418,485.34766 c -2.03212,0 -3.9259,0.47371 -5.61133,1.41992 l -0.004,0.002 -0.004,0.002 c -1.66235,0.94992 -3,2.32323 -3.9668,4.05079 -4.6e-4,8.1e-4 -0.001,0.001 -0.002,0.002 -0.9819,1.72919 -1.45703,3.75517 -1.45704,6.00976 0,2.25327 0.46,4.28526 1.41016,6.03711 l 0.006,0.01 0.006,0.01 c 0.9681,1.70152 2.30594,3.05792 3.96484,4.00586 1.66254,0.95002 3.54602,1.42188 5.57813,1.42188 2.02902,0 3.91159,-0.47085 5.57226,-1.41797 l 0.002,-0.002 c 1.68505,-0.94657 3.0398,-2.30303 4.00976,-4.00782 l 0.002,-0.004 0.002,-0.004 c 0.98078,-1.75352 1.45898,-3.79098 1.45898,-6.04883 0,-2.25485 -0.4788,-4.28044 -1.46093,-6.00976 -0.94023,-1.72788 -2.26463,-3.10351 -3.92579,-4.05274 -1.66253,-0.95001 -3.54796,-1.42382 -5.58007,-1.42382 z m 0,2.17187 c 1.70121,0 3.17782,0.38007 4.50195,1.13672 1.32111,0.75492 2.33751,1.80252 3.10352,3.21484 l 0.006,0.01 0.006,0.01 c 0.77522,1.36251 1.17774,2.98788 1.17774,4.94336 0,1.95303 -0.4024,3.59237 -1.17969,4.98438 -0.7894,1.38648 -1.83253,2.42791 -3.18555,3.1875 l -0.004,0.004 -0.004,0.002 c -1.32413,0.75664 -2.80073,1.13672 -4.50195,1.13672 -1.70122,0 -3.17587,-0.38008 -4.5,-1.13672 -1.32369,-0.75639 -2.35748,-1.79817 -3.14844,-3.1836 -0.75387,-1.39322 -1.14453,-3.03755 -1.14453,-4.99414 0,-1.95548 0.40252,-3.58085 1.17773,-4.94336 l 0.002,-0.004 0.002,-0.004 c 0.79261,-1.41709 1.82608,-2.46841 3.14844,-3.22461 8.1e-4,-4.6e-4 0.001,-10e-4 0.002,-0.002 1.35253,-0.75759 2.84301,-1.13672 4.54102,-1.13672 z m 0,0.70899 c -1.32342,0 -2.59264,0.33134 -3.73633,0.98046 -1.17291,0.66571 -2.12188,1.6751 -2.81641,2.94336 -0.72144,1.31741 -1.05273,2.89405 -1.05273,4.68164 0,1.7876 0.33129,3.36424 1.05273,4.68164 0.69134,1.26246 1.62043,2.26752 2.76563,2.93555 l 0.006,0.004 0.006,0.002 c 1.14004,0.64705 2.39435,0.98242 3.69531,0.98242 1.32341,0 2.59263,-0.33329 3.73633,-0.98242 1.17291,-0.6657 2.12188,-1.67314 2.8164,-2.94141 0.72144,-1.3174 1.05274,-2.89404 1.05274,-4.68164 0,-1.78448 -0.33195,-3.3578 -1.05078,-4.67382 -0.66787,-1.27039 -1.6043,-2.28539 -2.77735,-2.95118 -1.14004,-0.64705 -2.39631,-0.98046 -3.69726,-0.98046 z m 0,2.16992 c 0.93904,0 1.79171,0.22627 2.625,0.69922 0.79677,0.45222 1.4285,1.11581 1.93359,2.08007 l 0.004,0.008 0.006,0.01 c 0.50522,0.92259 0.78711,2.1196 0.78711,3.63867 0,1.51908 -0.28189,2.71609 -0.78711,3.63868 -0.53214,0.97173 -1.18396,1.64141 -1.98438,2.0957 -0.82964,0.47087 -1.69415,0.69922 -2.66406,0.69922 -0.93774,0 -1.78696,-0.22762 -2.61914,-0.69922 -0.77131,-0.45194 -1.41376,-1.12146 -1.94727,-2.0957 -0.50522,-0.92259 -0.78711,-2.1196 -0.78711,-3.63868 0,-1.51907 0.28189,-2.71608 0.78711,-3.63867 0.53214,-0.97173 1.182,-1.64336 1.98242,-2.09765 0.82964,-0.47088 1.69415,-0.69922 2.66407,-0.69922 z"
             id="path24513" />
        </g>
        <g
           id="path24482">
          <path
             style="color:#000000;-inkscape-font-specification:'DM Sans';fill:#000000;stroke:none;-inkscape-stroke:none"
             d="m 325.94219,506.75353 q -2.72,0 -4.28,-1.32 -1.56,-1.32 -1.56,-4.76 v -10.92 h -3.44 v -2.84 h 3.44 l 0.44,-4.76 h 2.92 v 4.76 h 5.84 v 2.84 h -5.84 v 10.92 q 0,1.88 0.76,2.56 0.76,0.64 2.68,0.64 h 2.08 v 2.88 z"
             id="path24517" />
          <path
             style="color:#000000;-inkscape-font-specification:'DM Sans';fill:#000000;stroke:none;-inkscape-stroke:none"
             d="m 319.55273,481.06836 -0.4414,4.75976 h -3.53516 v 5.01172 h 3.43945 v 9.83399 c 0,2.45745 0.55028,4.40747 1.94532,5.58789 1.27754,1.08099 2.9915,1.57812 4.98047,1.57812 h 4.12695 v -5.05273 h -3.16602 c -1.14791,0 -1.79073,-0.24357 -1.96093,-0.38086 -0.13722,-0.12854 -0.39258,-0.63651 -0.39258,-1.73242 v -9.83399 h 5.83984 v -5.01172 h -5.83984 v -4.75976 z m 1.97852,2.17187 h 0.8457 V 488 h 5.83985 v 0.66797 h -5.83985 v 12.00586 c 0,1.39964 0.24388,2.58426 1.1211,3.36914 l 0.0117,0.01 0.0137,0.0117 c 0.85125,0.71685 1.97827,0.89453 3.3789,0.89453 h 0.99414 v 0.70899 h -1.95507 c -1.6377,0 -2.77567,-0.3835 -3.57813,-1.0625 -0.68496,-0.57958 -1.17578,-1.80244 -1.17578,-3.93164 v -12.00586 h -3.43945 V 488 h 3.34375 z"
             id="path24519" />
        </g>
      </g>
    </g>
    <text
       xml:space="preserve"
       transform="scale(0.26458333)"
       id="text16898"
       style="font-size:40px;line-height:1.25;font-family:'DM Sans';-inkscape-font-specification:'DM Sans';white-space:pre;shape-inside:url(#rect16900)" />
  </g>
</svg>
